<svg width="24" height="17" viewBox="0 0 24 17" fill="none" xmlns="http://www.w3.org/2000/svg">
<path d="M22.5 0H1.5C1.10218 0 0.720644 0.158035 0.43934 0.43934C0.158035 0.720644 0 1.10218 0 1.5C0 1.89782 0.158035 2.27936 0.43934 2.56066C0.720644 2.84196 1.10218 3 1.5 3H22.5C22.8978 3 23.2794 2.84196 23.5607 2.56066C23.842 2.27936 24 1.89782 24 1.5C24 1.10218 23.842 0.720644 23.5607 0.43934C23.2794 0.158035 22.8978 0 22.5 0V0Z" fill="#F9F9FC"/>
<path d="M22.5 14H1.5C1.10218 14 0.720644 14.158 0.43934 14.4393C0.158035 14.7206 0 15.1022 0 15.5C0 15.8978 0.158035 16.2794 0.43934 16.5607C0.720644 16.842 1.10218 17 1.5 17H22.5C22.8978 17 23.2794 16.842 23.5607 16.5607C23.842 16.2794 24 15.8978 24 15.5C24 15.1022 23.842 14.7206 23.5607 14.4393C23.2794 14.158 22.8978 14 22.5 14Z" fill="#F9F9FC"/>
<path d="M22.5 7H1.5C1.10218 7 0.720644 7.15804 0.43934 7.43934C0.158035 7.72064 0 8.10218 0 8.5C0 8.89782 0.158035 9.27936 0.43934 9.56066C0.720644 9.84196 1.10218 10 1.5 10H22.5C22.8978 10 23.2794 9.84196 23.5607 9.56066C23.842 9.27936 24 8.89782 24 8.5C24 8.10218 23.842 7.72064 23.5607 7.43934C23.2794 7.15804 22.8978 7 22.5 7Z" fill="#F9F9FC"/>
</svg>
